<svg width="363" height="150.5" xmlns="http://www.w3.org/2000/svg">
 <style type="text/css">.st0{fill-rule:evenodd;clip-rule:evenodd;fill:#6772E5;}</style>

 <g>
  <title>background</title>
  <rect fill="none" id="canvas_background" height="152.5" width="365" y="-1" x="-1"/>
 </g>
 <g>
  <title>Layer 1</title>
  <g id="svg_1">
   <path id="svg_2" d="m360,77.400002c0,-25.599998 -12.399994,-45.800003 -36.100006,-45.800003c-23.799988,0 -38.199982,20.200005 -38.199982,45.599998c0,30.100006 17,45.300003 41.399994,45.300003c11.899994,0 20.899994,-2.699997 27.699982,-6.5l0,-20c-6.799988,3.399994 -14.599976,5.5 -24.5,5.5c-9.699982,0 -18.299988,-3.399994 -19.399994,-15.199997l48.899994,0c0,-1.300003 0.200012,-6.5 0.200012,-8.900002zm-49.399994,-9.5c0,-11.300003 6.899994,-16 13.200012,-16c6.100006,0 12.600006,4.699997 12.600006,16l-25.800018,0z" class="st0"/>
   <path id="svg_3" d="m247.100006,31.599998c-9.799988,0 -16.100006,4.599998 -19.600006,7.800003l-1.299988,-6.200005l-22,0l0,116.600006l25,-5.300003l0.100006,-28.300003c3.600006,2.600006 8.899994,6.300003 17.699982,6.300003c17.900024,0 34.200012,-14.399994 34.200012,-46.099998c-0.100006,-29 -16.600006,-44.800003 -34.100006,-44.800003zm-6,68.900002c-5.899994,0 -9.399994,-2.100006 -11.799988,-4.699997l-0.100006,-37.100006c2.600006,-2.899994 6.200012,-4.899994 11.899994,-4.899994c9.100006,0 15.399994,10.199997 15.399994,23.299995c0,13.400002 -6.200012,23.400002 -15.399994,23.400002z" class="st0"/>
   <polygon id="svg_4" points="169.8000030517578,25.700000762939453 194.89999389648438,20.299999237060547 194.89999389648438,0 169.8000030517578,5.299999237060547 " class="st0"/>
   <rect id="svg_5" height="87.5" width="25.1" class="st0" y="33.3" x="169.8"/>
   <path id="svg_6" d="m142.899994,40.699997l-1.600006,-7.399994l-21.599991,0l0,87.5l25,0l0,-59.300003c5.899994,-7.699997 15.899994,-6.300003 19,-5.199997l0,-23c-3.199997,-1.200005 -14.899994,-3.400002 -20.800003,7.399994z" class="st0"/>
   <path id="svg_7" d="m92.899994,11.599998l-24.400002,5.200001l-0.100006,80.099995c0,14.800003 11.099998,25.700012 25.900002,25.700012c8.199997,0 14.199997,-1.5 17.5,-3.300003l0,-20.300003c-3.199997,1.300003 -19,5.899994 -19,-8.900002l0,-35.5l19,0l0,-21.299995l-19,0l0.100006,-21.700005z" class="st0"/>
   <path id="svg_8" d="m25.300003,58.699997c0,-3.899994 3.199997,-5.399994 8.5,-5.399994c7.599998,0 17.199997,2.299995 24.799995,6.399994l0,-23.5c-8.299995,-3.299995 -16.5,-4.599998 -24.799995,-4.599998c-20.300003,0 -33.800003,10.599998 -33.800003,28.300003c0,27.599998 38,23.199997 38,35.099998c0,4.600006 -4,6.100006 -9.599998,6.100006c-8.300003,0 -18.900002,-3.400009 -27.300003,-8l0,23.799988c9.300003,4 18.700005,5.700012 27.300003,5.700012c20.799995,0 35.099998,-10.300003 35.099998,-28.200012c-0.099998,-29.799995 -38.199997,-24.499992 -38.199997,-35.699997z" class="st0"/>
  </g>
 </g>
</svg>