<svg xmlns="http://www.w3.org/2000/svg" viewBox="0 0 9238.39 7410.56"><defs><style>.cls-1{fill:none;}.cls-2,.cls-3,.cls-4,.cls-5,.cls-6,.cls-7,.cls-8,.cls-9{fill:#006837;stroke:#000;stroke-miterlimit:10;}.cls-2{stroke-width:0.88px;}.cls-3{stroke-width:0.88px;}.cls-4{stroke-width:1.01px;}.cls-5{stroke-width:1.02px;}.cls-6{stroke-width:0.96px;}.cls-7{stroke-width:0.94px;}.cls-8{stroke-width:1.08px;}.cls-9{stroke-width:1px;}</style></defs><title>green-peppers</title><g id="Layer_2" data-name="Layer 2"><g id="Layer_1-2" data-name="Layer 1"><rect class="cls-1" x="184.66" y="4541.5" width="2081.15" height="1948.33" transform="translate(-4544.9 5896.15) rotate(-88.38)"/><path class="cls-2" d="M2201.63,4993.12a610.48,610.48,0,0,0-86.14-222.06,615.78,615.78,0,0,0-263.73-230,611.06,611.06,0,0,0-114.19-39,618.24,618.24,0,0,0-318.65,10,615.29,615.29,0,0,0-399.08,377.68,619.28,619.28,0,0,0-260.33-10.18,610.48,610.48,0,0,0-222.06,86.14,615.64,615.64,0,0,0-230,263.72,610.83,610.83,0,0,0-39,114.19,620.07,620.07,0,0,0-7,247.36A610.29,610.29,0,0,0,347.61,5813a615.73,615.73,0,0,0,263.73,230,610.31,610.31,0,0,0,114.19,39,620.42,620.42,0,0,0,206.56,12.74,613.36,613.36,0,0,0,579.59,469.55,619,619,0,0,0,124-9,610.48,610.48,0,0,0,222.06-86.14,615.8,615.8,0,0,0,230-263.72,610.8,610.8,0,0,0,39-114.19,618.45,618.45,0,0,0,16-123.33A611.54,611.54,0,0,0,2003,5560.31a615.55,615.55,0,0,0,147.76-195.15,611.12,611.12,0,0,0,42.55-118.91,620,620,0,0,0,8.37-253.13ZM1149.46,6094.3l59.85-447.74L746.9,5884.67c-108.77,46-195.95,47.5-259.11,4.35-71-48.5-107.92-152.62-104-293.16,3.37-119.21,36.3-250.88,90.33-361.25,58.19-118.85,134.36-199.64,214.46-227.48,94-32.68,192.39,8.14,284.44,118.06l231.4,299.37,168.75-607.85c61.9-179.24,153.23-263.32,264.11-243.1,49.58,9,100.94,38.31,152.65,87,48.06,45.25,94.75,106.41,135,176.85,83.56,146.21,131.13,315.34,127.26,452.43-5.68,200.92-117.17,311.28-313.94,310.76L1446,5586.17l-.61,3.34L1848.48,5721c125.61,51.72,190.65,127.17,188.09,218.18-1.77,62.64-35.26,132.13-96.85,201-56.58,63.24-135.78,124-223,171.18-85.68,46.29-173.41,77.06-253.72,89-87.17,12.94-161.41,2.45-214.68-30.35-70.39-43.33-104.44-123.2-101.21-237.4C1147.43,6120.27,1148.23,6107.39,1149.46,6094.3Z" transform="translate(-222.06 -688.44)"/><rect class="cls-1" x="7002.28" y="1836.97" width="2086.3" height="1953.15" transform="translate(582.77 6621.61) rotate(-51.12)"/><path class="cls-3" d="M9141.6,2989.33a611.82,611.82,0,0,0,66.06-229.45,617.17,617.17,0,0,0-70.8-343.56,612.81,612.81,0,0,0-67.42-100.44,619.85,619.85,0,0,0-260.29-185.46,616.8,616.8,0,0,0-547.64,59.08A620.88,620.88,0,0,0,8060,2023.35a611.84,611.84,0,0,0-229.44-66.06,617.17,617.17,0,0,0-343.56,70.8,612.38,612.38,0,0,0-100.44,67.42,621.37,621.37,0,0,0-155.73,193.1,612,612,0,0,0-66.06,229.45,617.17,617.17,0,0,0,70.8,343.56A612.38,612.38,0,0,0,7303,2962.06a621.7,621.7,0,0,0,157.07,135.54A614.86,614.86,0,0,0,7637.43,3824a619.53,619.53,0,0,0,104.4,68.13,612.22,612.22,0,0,0,229.45,66.07,617.26,617.26,0,0,0,343.56-70.81A611.75,611.75,0,0,0,8415.28,3820a618.94,618.94,0,0,0,87.6-88.7,613.19,613.19,0,0,0,135.93-410.06,617,617,0,0,0,236.34-66,611.64,611.64,0,0,0,106.12-69,621.21,621.21,0,0,0,160.33-196.86ZM7633.74,3229.18l319.54-320.88-513.45-90.71c-114.73-29.31-185.17-81.05-209.37-153.81-27.2-81.8,6.55-187.27,95-297,75-93.06,181.23-178.12,291.34-233.37,118.57-59.51,228.38-77.73,309.18-51.31,94.86,31,148.55,123.28,155.27,266.84l2.88,379.31,503.61-382.52c158.18-105.43,282.08-117.07,358.27-33.63,34.07,37.3,57.28,91.83,69,162.06,10.87,65.28,11,142.41.36,223-22.08,167.36-86.79,331.18-173.1,438.2-126.49,156.85-282.43,177.22-439.1,57.37l-224.42-189-2.52,2.29L8418,3355.7c68.82,117.5,74.92,217.17,17.62,288.23-39.42,48.9-108.32,84-199.25,101.55-83.53,16.12-183.63,16.54-281.85,1.19-96.45-15.07-185.13-43.78-256.44-83-77.4-42.59-130.25-96-152.84-154.52-29.86-77.3-8.54-161.69,63.36-250.84C7616.36,3248.67,7624.82,3238.88,7633.74,3229.18Z" transform="translate(-222.06 -688.44)"/><rect class="cls-1" x="4807.73" y="2419.4" width="2379.29" height="2227.44" transform="translate(140.92 6931.86) rotate(-66.46)"/><path class="cls-4" d="M4738.78,3670.58a698,698,0,0,0-3.42,272.28,704,704,0,0,0,181.55,356.48,699.21,699.21,0,0,0,104.46,90.12,706.82,706.82,0,0,0,342.22,125.42,703.49,703.49,0,0,0,584.47-230.24,708.21,708.21,0,0,0,271.76,121.91A698,698,0,0,0,6492.1,4410a704,704,0,0,0,356.48-181.55A698.07,698.07,0,0,0,6938.69,4124a708.77,708.77,0,0,0,113-259.36,698.25,698.25,0,0,0,3.41-272.28,704,704,0,0,0-181.55-356.48,699.14,699.14,0,0,0-104.45-90.12,709.52,709.52,0,0,0-213.65-101.67,697.29,697.29,0,0,0-3.73-226.06,702,702,0,1,0-1360.14,335.84,703.32,703.32,0,0,0-240,143.9,698.19,698.19,0,0,0-95.89,108,708.52,708.52,0,0,0-116.91,264.89Zm1585.94-718.82-254.59,449.33,592.06-55.18c135-2.39,228.1,33.26,276.67,106,54.61,81.75,49.32,207.93-14.88,355.3-54.45,125-145.57,250.58-250,344.58-112.45,101.22-227.71,154.4-324.54,149.73-113.69-5.48-200.58-90.75-251.29-246.61L5980.52,3638.6,5542.1,4211.26c-142.16,163.69-274.91,213.88-383.88,145.11-48.73-30.75-90.71-83.71-124.77-157.42-31.66-68.51-55.07-153.3-67.7-245.2-26.22-190.73-4.49-390.41,58.13-534.16,91.78-210.67,257.13-280.13,465.6-195.6l303.85,140.12,2.08-3.27L5424,3049.3c-111.14-108.46-147.93-216.24-106.36-311.68,28.6-65.67,93.78-125.09,188.49-171.82,87-42.92,197-73.59,309.62-86.36,110.62-12.53,216.8-7.72,307.07,13.92,98,23.48,172.23,66.3,214.74,123.82,56.15,76,58.18,175.25,6,295C6338,2925.09,6331.61,2938.41,6324.72,2951.76Z" transform="translate(-222.06 -688.44)"/><rect class="cls-1" x="4166.4" y="5523.85" width="2405.46" height="2251.95" transform="translate(-2053.19 1356.61) rotate(-18.48)"/><path class="cls-5" d="M4414.09,5797.58a706,706,0,0,0-206.81,181.7,711.74,711.74,0,0,0-144.86,377.61,706.48,706.48,0,0,0,3,139.45,714.49,714.49,0,0,0,137.42,341.91,711.18,711.18,0,0,0,568.47,283.15A716,716,0,0,0,4863.68,7408a705.87,705.87,0,0,0,181.71,206.81A711.67,711.67,0,0,0,5423,7759.69a706.48,706.48,0,0,0,139.45-3A716.77,716.77,0,0,0,5833.72,7666a706,706,0,0,0,206.81-181.7,711.74,711.74,0,0,0,144.86-377.61,706.48,706.48,0,0,0-3-139.45A717.23,717.23,0,0,0,6114.15,6738a704.9,704.9,0,0,0,167.26-155.81,709.69,709.69,0,1,0-1172.75-794.24,711.49,711.49,0,0,0-270.51-82.87,705.9,705.9,0,0,0-146,1,716.54,716.54,0,0,0-278.08,91.47ZM6027.3,6502.22l-509.76,112.89,442.13,407.33c93.18,99.78,129.4,193.82,107.66,279.51-24.45,96.34-122.79,177.77-276.93,229.29-130.72,43.69-286.72,60.26-428,45.45-152.13-15.95-270.07-66.53-332.11-142.42-72.82-89.09-67.58-212.06,15.15-355.63l233-370.09-726.82,58.29c-219.14,4-346.68-61.73-368.78-190.11-9.88-57.41,1.49-124.78,33.79-200.25,30-70.14,77.86-145.11,138.34-216.8,125.5-148.77,290.18-267.59,440.53-317.84,220.34-73.65,384.41,3.52,462,217.31l100.41,323,3.86-.66-17.37-489.78c6.24-156.88,62.29-257.45,162.1-290.82,68.69-23,157.42-14.22,256.61,25.28,91.13,36.29,188.58,98.12,274.41,174.09,84.28,74.61,152.53,157.61,197.37,240.05,48.67,89.48,66.77,174.23,52.33,245.08-19.07,93.61-92.24,162.3-217.48,204.16C6056.3,6494.11,6042,6498.35,6027.3,6502.22Z" transform="translate(-222.06 -688.44)"/><rect class="cls-1" x="1144.68" y="3553.74" width="2117.79" height="2262.17" transform="translate(-2976.69 5486.17) rotate(-81.53)"/><path class="cls-6" d="M1766.19,3563.34a664,664,0,0,0-250.82,64.18A669.29,669.29,0,0,0,1233,3882.34a664,664,0,0,0-56.91,118.18,672.12,672.12,0,0,0-30.53,345.19,668.89,668.89,0,0,0,355.88,479.65A673.53,673.53,0,0,0,1456.72,5105a663.91,663.91,0,0,0,64.18,250.81,669.25,669.25,0,0,0,254.82,282.38,663.58,663.58,0,0,0,118.18,56.9,673.61,673.61,0,0,0,266,39.61,663.68,663.68,0,0,0,250.81-64.19,669.35,669.35,0,0,0,282.38-254.81,664,664,0,0,0,56.91-118.18,674.6,674.6,0,0,0,40.51-221.28,662.88,662.88,0,0,0,206.62-59.32,667.42,667.42,0,1,0-644.62-1165.65,669.27,669.27,0,0,0-191.45-184.76,663.53,663.53,0,0,0-122.83-61.33,673.6,673.6,0,0,0-272.09-41.84Zm1052,1278.25L2342.78,4719l197,529.9c35.58,123.36,25.86,217.64-28.89,280.2-61.54,70.35-178.69,96.69-329.86,74.19-128.21-19.09-266-71.68-378.16-144.3-120.73-78.21-198.05-170.88-217.71-260.93-23.08-105.73,33.73-206.58,164.28-291.68l353.08-210.93-634.14-260.9C1283,4344.48,1204.11,4235,1240.3,4118c16.18-52.34,54.43-104,113.68-153.47,55.06-46,127.12-88.47,208.36-122.79,168.62-71.23,357.31-100.65,504.77-78.7,216.1,32.17,320.75,166.8,294.69,379.09l-53.51,313.6,3.52,1.09,194.18-418c72.09-128.86,162-189.28,259.84-174.71,67.37,10,138,55.17,204.35,130.56,60.92,69.26,116.26,162.62,155.84,262.89,38.85,98.46,60.69,197.14,63.15,285.36,2.66,95.75-18.29,174.51-60.58,227.75-55.89,70.35-146.51,96.75-269.34,78.46C2846,4847.15,2832.2,4844.62,2818.24,4841.59Z" transform="translate(-222.06 -688.44)"/><rect class="cls-1" x="6216.29" y="2524.92" width="2208.19" height="2067.26" transform="translate(-862.63 4565.54) rotate(-37.95)"/><path class="cls-7" d="M8407.7,4004a648.11,648.11,0,0,0,123.41-220.54,653.37,653.37,0,0,0,9.87-371.14,648.81,648.81,0,0,0-45.27-119.77,655.71,655.71,0,0,0-223.53-253.89,652.85,652.85,0,0,0-578.64-71.17,657.37,657.37,0,0,0-167.62-219.82,648.19,648.19,0,0,0-220.53-123.41,653.42,653.42,0,0,0-371.15-9.87,648.09,648.09,0,0,0-119.77,45.27,657.71,657.71,0,0,0-207.05,161.46A647.67,647.67,0,0,0,6484,3041.69a653.37,653.37,0,0,0-9.87,371.14,648.09,648.09,0,0,0,45.27,119.77,658.4,658.4,0,0,0,129.19,177.56,650.77,650.77,0,0,0,7.65,791.42,655.64,655.64,0,0,0,91.17,95.39A647.67,647.67,0,0,0,6968,4720.38a653.37,653.37,0,0,0,371.14,9.87A648.09,648.09,0,0,0,7458.87,4685a655.73,655.73,0,0,0,111.66-70.29,648.87,648.87,0,0,0,239-389.84,653.23,653.23,0,0,0,259.48-11,648.43,648.43,0,0,0,126-45.57A657.6,657.6,0,0,0,8407.7,4004ZM6795.88,3887.65,7202.56,3634,6695.28,3416.7c-111.17-57.86-171.29-128.18-178.69-209-8.31-90.86,51.9-191.42,169.54-283.17,99.78-77.81,229.73-139.87,356.53-170.26,136.55-32.73,254.1-25,331,21.67,90.28,54.83,123.37,162.87,95.68,312.44L7380.86,3480l611.25-272.79c188.44-70.52,318.94-52.63,377.34,51.72,26.12,46.67,36.89,108.46,32,183.66-4.53,69.9-23,149.42-53.41,230-63.11,167.16-169.3,320.38-284,409.86-168.18,131.15-333.8,114.55-466.37-46.75l-185.72-248.88-3.14,1.75,164.87,418.6c42.59,137.69,24.84,241.88-51.34,301.3-52.43,40.89-131.9,60.47-229.84,56.62-90-3.54-193.23-27.24-290.76-66.74-95.77-38.79-180.23-89.75-244.26-147.39-69.5-62.55-111.09-130.37-120.27-196.11-12.12-86.85,30.19-168.69,125.78-243.23C6773.27,3903.54,6784.35,3895.48,6795.88,3887.65Z" transform="translate(-222.06 -688.44)"/><rect class="cls-1" x="4663.22" y="1182.9" width="2553.83" height="2390.84" transform="translate(818.4 5805.07) rotate(-61.85)"/><path class="cls-8" d="M4581.72,2416.74a748.82,748.82,0,0,0-27.16,291A755.59,755.59,0,0,0,4718,3104.81a749.76,749.76,0,0,0,104,105.43A758.45,758.45,0,0,0,5177.31,3374a755,755,0,0,0,645.18-195.87A760.2,760.2,0,0,0,6102.72,3332a749.33,749.33,0,0,0,291,27.16,755.68,755.68,0,0,0,397.06-163.47,749.15,749.15,0,0,0,105.43-104A760.57,760.57,0,0,0,7039.5,2824a749.33,749.33,0,0,0,27.16-291A755.59,755.59,0,0,0,6903.2,2135.9a749.76,749.76,0,0,0-104-105.43,761.42,761.42,0,0,0-219.8-127.22,748.16,748.16,0,0,0,15.52-242.18A753.47,753.47,0,1,0,5110.77,1903a755.23,755.23,0,0,0-269.2,133.24,748.77,748.77,0,0,0-111.9,107.23,760.47,760.47,0,0,0-147.95,273.31Zm1758.81-632.15-311.16,458.76,638.19-7.93c144.66,9.09,241.17,55.27,286.86,137.26,51.36,92.18,34.81,226.72-46.59,378.84-69.05,129-177.38,255.53-297.2,347.08-129.05,98.59-257,145.54-360.16,132.18-121.15-15.67-206.75-114.4-247.56-285.53L5913,2489.72l-518.5,574.83c-166.21,162.85-312.57,205.09-423.22,122.11-49.48-37.11-89.82-97.4-119.9-179.19-28-76-45.69-168.77-51.27-268.19-11.59-206.31,28.9-418.07,108.31-566.46,116.37-217.47,299.28-277.52,515-169.08l313,176.15,2.5-3.33-370.46-365.37c-109.54-125.63-139.59-244.12-86.88-342.64,36.27-67.79,111.13-125.73,216.49-167.55,96.79-38.42,217.07-61.74,338.71-65.67,119.43-3.86,232.62,10.46,327.33,41.4,102.8,33.58,178.54,85.8,219.05,151,53.52,86.15,47.12,192.51-19,316.12C6357,1757.2,6349.05,1770.9,6340.53,1784.59Z" transform="translate(-222.06 -688.44)"/><rect class="cls-1" x="4281.3" y="3861.89" width="2213.64" height="2364.55" transform="translate(-1886.43 2179.08) rotate(-25.96)"/><path class="cls-9" d="M4679.67,6084a693.62,693.62,0,0,0,203.55,178.32,699.66,699.66,0,0,0,386.56,92.88,694.47,694.47,0,0,0,135.52-20.77A702.52,702.52,0,0,0,5721,6156.76a699.07,699.07,0,0,0,203.25-590.27,704.19,704.19,0,0,0,267.53-126.68,694.21,694.21,0,0,0,178.32-203.56,699.66,699.66,0,0,0,92.88-386.56,694.58,694.58,0,0,0-20.77-135.52,704.4,704.4,0,0,0-123.08-252.79,693.62,693.62,0,0,0-203.55-178.32A699.4,699.4,0,0,0,5729,4190.18,693.71,693.71,0,0,0,5593.46,4211a704.69,704.69,0,0,0-214.72,95.83,696.91,696.91,0,0,0-830.69-168,703,703,0,0,0-120.19,74.28,693.62,693.62,0,0,0-178.32,203.55,699.7,699.7,0,0,0-92.88,386.57,694.58,694.58,0,0,0,20.77,135.52,703.39,703.39,0,0,0,48.79,132.6,694.95,694.95,0,0,0,355.19,337,699.19,699.19,0,0,0-46.16,274.25,693.35,693.35,0,0,0,19.7,142.14A704.19,704.19,0,0,0,4679.67,6084Zm480.4-1662.42L5335.31,4904l340.43-483c85.33-103.57,172.36-150.9,258.65-140.67,97,11.49,189,96.93,258.89,240.56,59.31,121.82,95.42,271.74,99.05,411.31,3.92,150.32-30.29,271.74-96.32,341.9-77.51,82.38-198,93-348.55,30.73L5457,5125l149.79,700.92c31.94,213.07-15.81,345.78-138.11,383.75-54.69,17-121.81,14.51-199.49-7.32-72.21-20.29-151.39-57.33-229-107.09-161.05-103.29-297.92-248.6-366.13-388.7-100-205.33-45.74-375.11,152.69-478.09l302-139.18-1.14-3.69-475.13,79.59c-153.7,14-258.89-27.78-304.18-120.79-31.17-64-34-151.6-8.19-253.33,23.71-93.46,71.51-196.35,134.57-289.72,61.93-91.68,134.1-168.82,208.71-223.07,81-58.88,161.27-87.36,232.17-82.36,93.68,6.62,170,69.15,226.8,185.85C5148.45,4394.36,5154.42,4407.75,5160.07,4421.58Z" transform="translate(-222.06 -688.44)"/></g></g></svg>