<svg xmlns="http://www.w3.org/2000/svg" viewBox="0 0 244.02 255.16"><defs><style>.cls-1{fill:none;}.cls-2{fill:#a46f3e;}.cls-3{fill:#bf8555;}</style></defs><title>sausage</title><g id="Layer_2" data-name="Layer 2"><g id="Capa_1" data-name="Capa 1"><rect class="cls-1" x="172.22" y="92.97" width="51.74" height="51.75" transform="translate(38.73 291.35) rotate(-79.27)"/><path class="cls-2" d="M180.32,134.85a5.92,5.92,0,0,1-8.09-1.37s-.41-.63-.53-.86c-4.25-7.85,2.42-20.92,15.46-29.8s27.64-10.33,33.4-3.49c.16.19.6.81.6.81a5.91,5.91,0,0,1-5.31,9,11.35,11.35,0,0,1-1.5-.27c-5.68-1-12-.8-19.91,4.59-8.1,5.52-10.45,11.31-11.56,17A5.92,5.92,0,0,1,180.32,134.85Z" transform="translate(-5.72)"/><path class="cls-3" d="M202.18,103.52c-11.19,2.62-20.35,10.63-23.32,20.42a1.06,1.06,0,0,0,.71,1.34,1.08,1.08,0,0,0,1.35-.72c2.71-8.92,11.45-16.53,21.76-18.94a1.07,1.07,0,0,0,.8-1.29,1.08,1.08,0,0,0-.85-.82A1.37,1.37,0,0,0,202.18,103.52Z" transform="translate(-5.72)"/><path class="cls-3" d="M211,103.08a21,21,0,0,0-4.77-.19,1.08,1.08,0,1,0,.16,2.15,18.32,18.32,0,0,1,4.27.17,1.08,1.08,0,0,0,.37-2.12Z" transform="translate(-5.72)"/><path class="cls-3" d="M222,102.19l4.37-.76a.86.86,0,0,1,.83,1.36l-1.4,1.84a.84.84,0,0,0-.17.59l.45,5a.85.85,0,0,1-1.48.65l-3.68-4A5.91,5.91,0,0,0,222,102.19Z" transform="translate(-5.72)"/><path class="cls-3" d="M173.87,135l-2.3,3.78a.86.86,0,0,0,1,1.27l2.22-.63a.83.83,0,0,1,.62.06l4.44,2.23a.85.85,0,0,0,1.15-1.14l-2.4-4.9A5.89,5.89,0,0,1,173.87,135Z" transform="translate(-5.72)"/><rect class="cls-1" x="66.43" y="39.83" width="48.88" height="48.86" transform="translate(-5.3 129.12) rotate(-70.92)"/><path class="cls-2" d="M103.38,83.06A5.58,5.58,0,0,1,101,90.43s-.64.3-.87.38c-7.92,2.9-19.21-5.13-25.73-18.54S68.54,45,75.71,40.59c.21-.13.84-.46.84-.46a5.59,5.59,0,0,1,7.27,2.68,5.52,5.52,0,0,1,.45,3.53,10.06,10.06,0,0,1-.46,1.36c-1.73,5.17-2.39,11.11,1.56,19.24,4,8.32,9.14,11.31,14.34,13.14A5.57,5.57,0,0,1,103.38,83.06Z" transform="translate(-5.72)"/><path class="cls-3" d="M77.11,58.33C78,69.15,84.25,78.81,93,82.93a1,1,0,1,0,.86-1.84c-8-3.76-13.87-13-14.71-22.93a1,1,0,0,0-2-.25A1.16,1.16,0,0,0,77.11,58.33Z" transform="translate(-5.72)"/><path class="cls-3" d="M77.91,50a19.4,19.4,0,0,0-.83,4.43,1,1,0,1,0,2,.15,17.46,17.46,0,0,1,.74-4A1,1,0,0,0,77.92,50Z" transform="translate(-5.72)"/><path class="cls-3" d="M78.58,39.67l-.11-4.18a.81.81,0,0,1,1.39-.58l1.52,1.55a.77.77,0,0,0,.53.24L86.6,37a.81.81,0,0,1,.4,1.48l-4.26,2.88A5.65,5.65,0,0,0,78.58,39.67Z" transform="translate(-5.72)"/><path class="cls-3" d="M102.6,89.1l3.22,2.67a.81.81,0,0,0,1.32-.73l-.29-2.16a.84.84,0,0,1,.14-.56l2.7-3.84a.81.81,0,0,0-.91-1.24l-4.9,1.58A5.62,5.62,0,0,1,102.6,89.1Z" transform="translate(-5.72)"/><rect class="cls-1" x="25.92" y="94.81" width="50.8" height="50.82" transform="translate(-15.82 4.83) rotate(-4.91)"/><path class="cls-2" d="M31.48,107.65a5.82,5.82,0,0,1-.84-8s.49-.56.67-.73c6.3-6.1,20.42-3.25,32.28,6.73s17.07,23.41,12.13,30.66c-.13.21-.6.78-.6.78a5.8,5.8,0,0,1-10-2.63A10.69,10.69,0,0,1,65,133c-.54-5.64-2.42-11.56-9.61-17.61-7.36-6.2-13.46-6.88-19.17-6.42A5.86,5.86,0,0,1,31.48,107.65Z" transform="translate(-5.72)"/><path class="cls-3" d="M66.9,120c-5.45-9.9-15.45-16.44-25.48-16.66a1.06,1.06,0,0,0-.05,2.11C50.52,105.7,60,112,65,121.06a1.06,1.06,0,0,0,1.44.41,1,1,0,0,0,.54-1A1,1,0,0,0,66.9,120Z" transform="translate(-5.72)"/><path class="cls-3" d="M69.64,128.25a19.86,19.86,0,0,0-1.08-4.56,1,1,0,0,0-1.35-.63,1.07,1.07,0,0,0-.64,1.35,17.91,17.91,0,0,1,1,4.08,1.06,1.06,0,0,0,2.11-.21Z" transform="translate(-5.72)"/><path class="cls-3" d="M73.39,138.38l1.87,3.93a.84.84,0,0,1-1.07,1.14l-2.1-.84a.81.81,0,0,0-.61,0l-4.56,1.73a.84.84,0,0,1-1-1.23l2.83-4.54A5.83,5.83,0,0,0,73.39,138.38Z" transform="translate(-5.72)"/><path class="cls-3" d="M29.68,101.58l-4.19-1.17a.84.84,0,0,0-.95,1.24l1.19,1.94a.86.86,0,0,1,.1.59L24.9,109a.84.84,0,0,0,1.38.79l4-3.57A5.75,5.75,0,0,1,29.68,101.58Z" transform="translate(-5.72)"/><rect class="cls-1" x="98.08" y="181.31" width="47.17" height="47.18" transform="translate(-77.25 65.39) rotate(-23.47)"/><path class="cls-2" d="M142.84,210.1a5.4,5.4,0,0,1,3.11,6.8s-.26.63-.37.84c-3.75,7.23-17,8.89-30.4,3.61s-22-15.56-19.74-23.4c.06-.22.3-.86.3-.86a5.38,5.38,0,0,1,9.54-.63,10.6,10.6,0,0,1,.57,1.27c2.14,4.8,5.55,9.46,13.65,12.66,8.32,3.28,13.89,2.08,18.78,0A5.37,5.37,0,0,1,142.84,210.1Z" transform="translate(-5.72)"/><path class="cls-3" d="M108,209.66c7.72,7.1,18.45,9.9,27.35,7.13a1,1,0,1,0-.58-1.87c-8.12,2.52-18.34-.17-25.44-6.71a1,1,0,0,0-1.38.06,1,1,0,0,0-.18,1.06A1,1,0,0,0,108,209.66Z" transform="translate(-5.72)"/><path class="cls-3" d="M103.17,203.24a18.69,18.69,0,0,0,2.3,3.69,1,1,0,0,0,1.38.16,1,1,0,0,0,.16-1.38,16.29,16.29,0,0,1-2.06-3.3,1,1,0,0,0-1.31-.48,1,1,0,0,0-.48,1.28Z" transform="translate(-5.72)"/><path class="cls-3" d="M96.88,195.43l-2.81-2.9a.78.78,0,0,1,.61-1.32l2.1.11a.78.78,0,0,0,.53-.17l3.5-2.88a.78.78,0,0,1,1.25.79l-1.15,4.83A5.44,5.44,0,0,0,96.88,195.43Z" transform="translate(-5.72)"/><path class="cls-3" d="M146.23,214.91l4-.21a.78.78,0,0,0,.46-1.38L149.11,212a.73.73,0,0,1-.27-.49l-.59-4.49a.78.78,0,0,0-1.45-.28L144.34,211A5.39,5.39,0,0,1,146.23,214.91Z" transform="translate(-5.72)"/><rect class="cls-1" x="177.7" y="103.62" width="45.7" height="45.69" transform="translate(-33.59 62.89) rotate(-16.68)"/><path class="cls-2" d="M193.13,146.24a5.23,5.23,0,0,1-6.9,2.21s-.58-.32-.76-.45c-6.53-4.43-6.61-17.39,0-29.65S203,99,210.23,102c.21.08.81.38.81.38a5.23,5.23,0,0,1,1.94,7,5.17,5.17,0,0,1-2.43,2.27,9.49,9.49,0,0,1-1.29.4c-4.86,1.51-9.74,4.26-13.74,11.69-4.11,7.62-3.59,13.11-2.14,18.06A5.24,5.24,0,0,1,193.13,146.24Z" transform="translate(-5.72)"/><path class="cls-3" d="M197.54,112.79c-7.72,6.61-11.64,16.61-10,25.49a.94.94,0,0,0,1.11.76,1,1,0,0,0,.76-1.11c-1.5-8.09,2.26-17.62,9.35-23.69a1,1,0,1,0-1.23-1.45Z" transform="translate(-5.72)"/><path class="cls-3" d="M204.27,108.86a18.91,18.91,0,0,0-3.82,1.79,1,1,0,1,0,1,1.62,16,16,0,0,1,3.41-1.6.95.95,0,0,0-.57-1.81Z" transform="translate(-5.72)"/><path class="cls-3" d="M212.49,103.71l3.12-2.37a.76.76,0,0,1,1.2.73l-.35,2a.78.78,0,0,0,.11.54l2.36,3.69a.75.75,0,0,1-.89,1.12l-4.52-1.66A5.26,5.26,0,0,0,212.49,103.71Z" transform="translate(-5.72)"/><path class="cls-3" d="M188.12,149l-.27,3.9a.75.75,0,0,0,1.27.6l1.49-1.39a.75.75,0,0,1,.51-.21l4.38,0a.76.76,0,0,0,.44-1.37l-3.87-2.86A5.26,5.26,0,0,1,188.12,149Z" transform="translate(-5.72)"/><rect class="cls-1" x="177.91" y="44.34" width="52.41" height="52.42" transform="translate(64.8 240.23) rotate(-70.85)"/><path class="cls-2" d="M183.94,84a6,6,0,0,1-7.9-2.57s-.33-.69-.41-.94c-3.1-8.5,5.53-20.6,19.92-27.57s29.23-6.24,34,1.46c.14.21.48.9.48.9a6,6,0,0,1-6.66,8.27,11.37,11.37,0,0,1-1.47-.49c-5.54-1.87-11.91-2.58-20.63,1.64C192.32,69,189.11,74.44,187.14,80A6,6,0,0,1,183.94,84Z" transform="translate(-5.72)"/><path class="cls-3" d="M210.5,55.8c-11.62,1-22,7.64-26.41,17a1.09,1.09,0,0,0,.52,1.45,1.07,1.07,0,0,0,1.45-.52C190.1,65.2,200,58.87,210.68,58a1.09,1.09,0,0,0-.18-2.18Z" transform="translate(-5.72)"/><path class="cls-3" d="M219.39,56.67a21,21,0,0,0-4.75-.9,1.09,1.09,0,1,0-.16,2.18,18.81,18.81,0,0,1,4.25.8,1.09,1.09,0,0,0,.69-2.07Z" transform="translate(-5.72)"/><path class="cls-3" d="M230.5,57.4l4.49-.11a.87.87,0,0,1,.63,1.49l-1.68,1.63a.92.92,0,0,0-.26.57l-.28,5a.86.86,0,0,1-1.58.44l-3.09-4.58A6,6,0,0,0,230.5,57.4Z" transform="translate(-5.72)"/><path class="cls-3" d="M177.46,83.1l-2.87,3.46a.87.87,0,0,0,.78,1.41l2.32-.3a.84.84,0,0,1,.61.15l4.11,2.89a.87.87,0,0,0,1.33-1l-1.69-5.26A6,6,0,0,1,177.46,83.1Z" transform="translate(-5.72)"/><rect class="cls-1" x="72.22" y="8.89" width="50.41" height="50.43" transform="translate(-10.31 49.85) rotate(-28.07)"/><path class="cls-2" d="M120.43,37.83a5.77,5.77,0,0,1,3.9,7s-.23.7-.33.92c-3.37,8-17.36,10.93-32.07,6.46S67.21,37.5,68.89,29c0-.24.24-.95.24-.95a5.76,5.76,0,0,1,10.11-1.49A11.9,11.9,0,0,1,80,27.82c2.69,4.94,6.72,9.61,15.63,12.32,9.14,2.78,15,1,20-1.62A5.74,5.74,0,0,1,120.43,37.83Z" transform="translate(-5.72)"/><path class="cls-3" d="M83.29,40.35c8.83,6.9,20.5,9,29.75,5.25a1.05,1.05,0,0,0-.79-2c-8.43,3.39-19.55,1.4-27.67-5A1,1,0,0,0,83,40,1.13,1.13,0,0,0,83.29,40.35Z" transform="translate(-5.72)"/><path class="cls-3" d="M77.58,33.92a20.37,20.37,0,0,0,2.76,3.74,1.05,1.05,0,0,0,1.54-1.43,17.79,17.79,0,0,1-2.48-3.35,1.05,1.05,0,0,0-1.84,1Z" transform="translate(-5.72)"/><path class="cls-3" d="M70.21,26.15,67,23.29a.83.83,0,0,1,.53-1.46l2.25,0a.84.84,0,0,0,.55-.24l3.48-3.36a.83.83,0,0,1,1.4.73l-.81,5.25A5.73,5.73,0,0,0,70.21,26.15Z" transform="translate(-5.72)"/><path class="cls-3" d="M124.45,42.66l4.28-.56a.84.84,0,0,0,.37-1.51l-1.83-1.3a.81.81,0,0,1-.33-.51l-1-4.73a.83.83,0,0,0-1.57-.17l-2.25,4.81A5.76,5.76,0,0,1,124.45,42.66Z" transform="translate(-5.72)"/><rect class="cls-1" x="14.26" y="61.81" width="44.6" height="44.59" transform="translate(-59.63 69.06) rotate(-57.06)"/><path class="cls-2" d="M29.58,64.71a5.09,5.09,0,0,1,3.73-6s.63-.13.85-.15c7.66-.84,15.91,8.75,18.75,22s-.77,25.42-8.1,27.78c-.21.08-.84.22-.84.22a5.09,5.09,0,0,1-5.49-7.18,9.94,9.94,0,0,1,.71-1.11C41.85,96.12,43.74,91,42,82.94c-1.77-8.27-5.63-12-9.84-14.78A5.13,5.13,0,0,1,29.58,64.71Z" transform="translate(-5.72)"/><path class="cls-3" d="M47.45,92.37C49,82.58,45.6,72.66,38.76,67.1a.93.93,0,0,0-1.17,1.44c6.23,5.07,9.46,14.53,8,23.54a.93.93,0,0,0,.77,1.06.92.92,0,0,0,.92-.41A.93.93,0,0,0,47.45,92.37Z" transform="translate(-5.72)"/><path class="cls-3" d="M44.93,99.54a17.69,17.69,0,0,0,1.71-3.74.93.93,0,0,0-1.77-.57,15.94,15.94,0,0,1-1.52,3.35.93.93,0,0,0,1.57,1Z" transform="translate(-5.72)"/><path class="cls-3" d="M42.07,108.58l-.82,3.73a.73.73,0,0,1-1.35.21l-1-1.71a.7.7,0,0,0-.42-.33l-4.09-1.25a.74.74,0,0,1,0-1.4l4.41-1.62A5.1,5.1,0,0,0,42.07,108.58Z" transform="translate(-5.72)"/><path class="cls-3" d="M31.59,59.53l-2.27-3.07a.73.73,0,0,0-1.32.36l-.23,2a.72.72,0,0,1-.24.48L24.3,62.08a.74.74,0,0,0,.54,1.29l4.69-.32A5.12,5.12,0,0,1,31.59,59.53Z" transform="translate(-5.72)"/><rect class="cls-1" x="34.55" y="181.09" width="43.33" height="43.31" transform="matrix(0.57, -0.82, 0.82, 0.57, -148.18, 133.49)"/><path class="cls-2" d="M50,183.71a5,5,0,0,1,3.8-5.72s.62-.1.83-.11c7.46-.59,15.18,9,17.54,22s-1.51,24.65-8.7,26.73c-.2.06-.82.18-.82.18a4.95,4.95,0,0,1-5.11-7.14,9.15,9.15,0,0,1,.72-1.05c2.71-4,4.69-8.92,3.26-16.79-1.46-8.08-5.09-11.84-9.1-14.65A4.93,4.93,0,0,1,50,183.71Z" transform="translate(-5.72)"/><path class="cls-3" d="M66.54,211.1c1.8-9.46-1.21-19.19-7.68-24.79a.9.9,0,1,0-1.18,1.36c5.9,5.11,8.75,14.39,7.08,23.09a.9.9,0,0,0,1.63.68A1,1,0,0,0,66.54,211.1Z" transform="translate(-5.72)"/><path class="cls-3" d="M63.87,218a17.3,17.3,0,0,0,1.77-3.58.9.9,0,1,0-1.7-.61,14.9,14.9,0,0,1-1.58,3.2.9.9,0,0,0,.27,1.25.9.9,0,0,0,1.23-.24Z" transform="translate(-5.72)"/><path class="cls-3" d="M60.83,226.67l-.91,3.6a.71.71,0,0,1-1.32.17l-.93-1.7a.77.77,0,0,0-.4-.33l-3.93-1.34a.71.71,0,0,1,0-1.35l4.33-1.45A4.94,4.94,0,0,0,60.83,226.67Z" transform="translate(-5.72)"/><path class="cls-3" d="M52.13,178.74,50,175.69a.72.72,0,0,0-1.3.31l-.27,1.91a.72.72,0,0,1-.26.45L45,181a.71.71,0,0,0,.48,1.27l4.56-.18A5,5,0,0,1,52.13,178.74Z" transform="translate(-5.72)"/><rect class="cls-1" x="142.07" y="195.51" width="49.57" height="49.58" transform="translate(-115.08 211.42) rotate(-51.02)"/><path class="cls-2" d="M144.6,225.75a5.67,5.67,0,0,1-6.2-4.83s-.07-.72-.06-1c0-8.56,11.53-16.56,26.56-18.14s28,3.82,29.77,12.2c.06.24.14,1,.14,1a5.66,5.66,0,0,1-8.58,5.22,10.93,10.93,0,0,1-1.15-.91c-4.33-3.43-9.77-6.12-18.88-5.16-9.34,1-13.94,4.81-17.49,9.14A5.68,5.68,0,0,1,144.6,225.75Z" transform="translate(-5.72)"/><path class="cls-3" d="M177.26,209.23c-10.64-2.87-22-.26-28.94,6.65a1,1,0,1,0,1.45,1.46c6.34-6.3,17.17-8.76,27-6.12a1,1,0,0,0,.91-1.8A.91.91,0,0,0,177.26,209.23Z" transform="translate(-5.72)"/><path class="cls-3" d="M184.9,212.85a19.92,19.92,0,0,0-3.94-2.32,1,1,0,0,0-.84,1.88,18.32,18.32,0,0,1,3.53,2.08,1,1,0,0,0,1.27-1.62Z" transform="translate(-5.72)"/><path class="cls-3" d="M194.55,217.07l4,1.34a.82.82,0,0,1,.08,1.52l-2,.92a.82.82,0,0,0-.42.42l-1.86,4.38a.82.82,0,0,1-1.55-.12l-1.27-5.06A5.67,5.67,0,0,0,194.55,217.07Z" transform="translate(-5.72)"/><path class="cls-3" d="M139.11,222.91l-3.66,2.16a.81.81,0,0,0,.24,1.5l2.16.48a.79.79,0,0,1,.49.33l2.73,3.89a.82.82,0,0,0,1.49-.44l.2-5.22A5.67,5.67,0,0,1,139.11,222.91Z" transform="translate(-5.72)"/><rect class="cls-1" x="203.16" y="104.93" width="44.32" height="44.33" transform="translate(69.05 337.47) rotate(-83.84)"/><path class="cls-2" d="M239.4,112.21a5.08,5.08,0,0,1,7,.62s.4.51.52.7c4.16,6.41-.65,18-11.18,26.5s-22.9,10.7-28.27,5.26c-.16-.15-.57-.65-.57-.65a5.06,5.06,0,0,1,3.91-8.09,11.31,11.31,0,0,1,1.31.13c4.91.48,10.3-.14,16.68-5.27,6.54-5.27,8.15-10.37,8.71-15.34A5.1,5.1,0,0,1,239.4,112.21Z" transform="translate(-5.72)"/><path class="cls-3" d="M222.87,140.45c9.38-3,16.66-10.46,18.53-19a.93.93,0,0,0-1.81-.39c-1.7,7.8-8.65,14.89-17.28,17.66a.91.91,0,0,0-.6,1.15.92.92,0,0,0,.78.64A1,1,0,0,0,222.87,140.45Z" transform="translate(-5.72)"/><path class="cls-3" d="M215.37,141.43a18.22,18.22,0,0,0,4.09-.16.93.93,0,0,0-.28-1.83,16.2,16.2,0,0,1-3.66.15.92.92,0,0,0-.17,1.84Z" transform="translate(-5.72)"/><path class="cls-3" d="M206.08,142.94l-3.68.94a.73.73,0,0,1-.8-1.1l1.07-1.67a.73.73,0,0,0,.11-.52l-.73-4.19a.74.74,0,0,1,1.23-.66l3.41,3.19A5.06,5.06,0,0,0,206.08,142.94Z" transform="translate(-5.72)"/><path class="cls-3" d="M244.9,111.68l1.71-3.39a.73.73,0,0,0-.91-1l-1.85.69a.75.75,0,0,1-.53,0l-3.94-1.6a.74.74,0,0,0-.91,1.06l2.39,4A5,5,0,0,1,244.9,111.68Z" transform="translate(-5.72)"/><rect class="cls-1" x="135.85" y="79.15" width="44.49" height="44.51" transform="translate(40.28 252.12) rotate(-86.04)"/><path class="cls-2" d="M171.65,85.94a5.07,5.07,0,0,1,7,.35s.42.49.54.68c4.43,6.27.06,18.1-10.18,27s-22.56,11.61-28.17,6.36c-.16-.15-.59-.63-.59-.63a5.08,5.08,0,0,1,3.61-8.26,10.1,10.1,0,0,1,1.32.08c4.95.29,10.33-.54,16.53-5.94,6.36-5.53,7.78-10.72,8.15-15.72A5.08,5.08,0,0,1,171.65,85.94Z" transform="translate(-5.72)"/><path class="cls-3" d="M156.15,114.9c9.3-3.37,16.3-11.14,17.85-19.79a.92.92,0,1,0-1.82-.33c-1.41,7.89-8.11,15.28-16.66,18.38a.93.93,0,0,0,.25,1.8A.86.86,0,0,0,156.15,114.9Z" transform="translate(-5.72)"/><path class="cls-3" d="M148.67,116.18a17.88,17.88,0,0,0,4.09-.33.92.92,0,0,0,.73-1.08.94.94,0,0,0-1.09-.74,15.81,15.81,0,0,1-3.66.29.93.93,0,0,0-.1,1.85Z" transform="translate(-5.72)"/><path class="cls-3" d="M139.4,118.05l-3.65,1.08a.73.73,0,0,1-.85-1.07l1-1.71a.76.76,0,0,0,.09-.53l-.89-4.18a.74.74,0,0,1,1.2-.71l3.55,3.07A5.09,5.09,0,0,0,139.4,118.05Z" transform="translate(-5.72)"/><path class="cls-3" d="M177.14,85.19l1.59-3.47a.74.74,0,0,0-1-1l-1.83.76a.7.7,0,0,1-.53,0l-4-1.45a.73.73,0,0,0-.87,1.09l2.54,3.94A5.06,5.06,0,0,1,177.14,85.19Z" transform="translate(-5.72)"/><rect class="cls-1" x="51.52" y="102.73" width="51.36" height="51.35" transform="translate(-78.11 120.03) rotate(-55.78)"/><path class="cls-2" d="M69.66,105.9a5.88,5.88,0,0,1,4.45-6.82s.74-.13,1-.15c8.83-.76,18.08,10.48,21,25.87s-1.54,29.24-10,31.78c-.24.08-1,.23-1,.23a5.88,5.88,0,0,1-6.64-4.71,5.81,5.81,0,0,1,.51-3.7,11.62,11.62,0,0,1,.84-1.27c3.17-4.76,5.48-10.61,3.7-19.93-1.82-9.56-6.16-14-10.93-17.27A5.86,5.86,0,0,1,69.66,105.9Z" transform="translate(-5.72)"/><path class="cls-3" d="M89.53,138.2c2-11.24-1.63-22.74-9.35-29.32a1.08,1.08,0,0,0-1.51.13,1.05,1.05,0,0,0,.12,1.5c7,6,10.52,17,8.63,27.3a1.07,1.07,0,0,0,1.94.79A1,1,0,0,0,89.53,138.2Z" transform="translate(-5.72)"/><path class="cls-3" d="M86.44,146.39a20.73,20.73,0,0,0,2.06-4.26,1.07,1.07,0,1,0-2-.71,18.23,18.23,0,0,1-1.84,3.82,1.07,1.07,0,0,0,1.78,1.18Z" transform="translate(-5.72)"/><path class="cls-3" d="M82.92,156.72l-1,4.27a.85.85,0,0,1-1.57.21l-1.11-2a.9.9,0,0,0-.48-.4L74,157.27a.85.85,0,0,1,0-1.61l5.12-1.75A5.9,5.9,0,0,0,82.92,156.72Z" transform="translate(-5.72)"/><path class="cls-3" d="M72.12,100l-2.54-3.6a.84.84,0,0,0-1.53.38L67.74,99a.84.84,0,0,1-.3.54l-3.78,3.15a.85.85,0,0,0,.58,1.5l5.41-.25A5.84,5.84,0,0,1,72.12,100Z" transform="translate(-5.72)"/><rect class="cls-1" x="112.67" y="146.29" width="51.23" height="51.21" transform="translate(-43.79 39.33) rotate(-14.25)"/><path class="cls-2" d="M129,193.69a5.85,5.85,0,0,1-7.83,2.15s-.63-.39-.83-.54c-7.11-5.27-6.58-19.78,1.41-33.21s20.49-20.82,28.51-17.09c.23.1.88.47.88.47a5.86,5.86,0,0,1-1,10.34,10.93,10.93,0,0,1-1.46.38c-5.52,1.46-11.11,4.31-15.94,12.44-5,8.34-4.65,14.52-3.26,20.13A5.82,5.82,0,0,1,129,193.69Z" transform="translate(-5.72)"/><path class="cls-3" d="M135.56,156.44c-9,7-13.83,18.05-12.4,28.07a1.07,1.07,0,1,0,2.11-.3c-1.3-9.13,3.37-19.62,11.6-26.09a1.06,1.06,0,0,0-.92-1.87A1,1,0,0,0,135.56,156.44Z" transform="translate(-5.72)"/><path class="cls-3" d="M143.28,152.36a20.82,20.82,0,0,0-4.36,1.83,1.06,1.06,0,0,0-.41,1.45,1.08,1.08,0,0,0,1.45.41,17.94,17.94,0,0,1,3.9-1.63,1.08,1.08,0,0,0,.74-1.32,1.06,1.06,0,0,0-1.29-.74Z" transform="translate(-5.72)"/><path class="cls-3" d="M152.74,147l3.6-2.5a.85.85,0,0,1,1.31.88l-.49,2.23a.84.84,0,0,0,.1.6l2.47,4.25a.85.85,0,0,1-1.06,1.21l-5-2.08A5.88,5.88,0,0,0,152.74,147Z" transform="translate(-5.72)"/><path class="cls-3" d="M123.29,196.49l-.48,4.36a.84.84,0,0,0,1.39.73l1.73-1.49a.88.88,0,0,1,.58-.21l4.91.15a.85.85,0,0,0,.56-1.51l-4.2-3.38A5.92,5.92,0,0,1,123.29,196.49Z" transform="translate(-5.72)"/><rect class="cls-1" x="143.54" y="100.45" width="49.97" height="49.96" transform="matrix(0.96, -0.28, 0.28, 0.96, -33.81, 51.42)"/><path class="cls-2" d="M176.88,103.91a5.72,5.72,0,0,1,7.57-2.34s.63.36.83.51c7.09,4.92,7,19.09-.37,32.42S165.56,155.42,157.63,152c-.23-.09-.87-.44-.87-.44a5.7,5.7,0,0,1,.65-10.1,10.15,10.15,0,0,1,1.41-.42c5.34-1.6,10.7-4.54,15.17-12.61,4.58-8.29,4.09-14.3,2.56-19.73A5.69,5.69,0,0,1,176.88,103.91Z" transform="translate(-5.72)"/><path class="cls-3" d="M171.65,140.42c8.52-7.13,12.93-18,11.24-27.74a1,1,0,1,0-2,.35c1.54,8.87-2.69,19.24-10.53,25.8a1,1,0,0,0,1,1.79A.93.93,0,0,0,171.65,140.42Z" transform="translate(-5.72)"/><path class="cls-3" d="M164.24,144.63a19.46,19.46,0,0,0,4.2-1.91,1,1,0,0,0,.35-1.42,1,1,0,0,0-1.42-.36,17.54,17.54,0,0,1-3.76,1.71,1,1,0,0,0-.67,1.31,1,1,0,0,0,1.27.68Z" transform="translate(-5.72)"/><path class="cls-3" d="M155.18,150.17l-3.43,2.55a.83.83,0,0,1-1.31-.82l.41-2.19a.79.79,0,0,0-.11-.58l-2.54-4.07a.82.82,0,0,1,1-1.21l4.92,1.87A5.74,5.74,0,0,0,155.18,150.17Z" transform="translate(-5.72)"/><path class="cls-3" d="M182.39,101l.34-4.27a.82.82,0,0,0-1.38-.67l-1.64,1.51a.81.81,0,0,1-.56.21h-4.79a.83.83,0,0,0-.5,1.49l4.2,3.17A5.72,5.72,0,0,1,182.39,101Z" transform="translate(-5.72)"/><rect class="cls-1" x="96.98" y="101.46" width="43.02" height="43.01" transform="translate(-32.96 211.99) rotate(-77.48)"/><path class="cls-2" d="M105.65,107.79a4.92,4.92,0,0,1,1.35-6.68s.54-.33.73-.42c6.63-3.34,17.32,2.55,24.36,13.62s7.86,23.24,2,27.84c-.16.13-.68.48-.68.48a4.92,4.92,0,0,1-6.63-1.61,4.85,4.85,0,0,1-.75-3,10.68,10.68,0,0,1,.26-1.24c1-4.69,1-10-3.29-16.66-4.38-6.88-9.13-9-13.86-10A4.94,4.94,0,0,1,105.65,107.79Z" transform="translate(-5.72)"/><path class="cls-3" d="M131.11,126.77c-1.88-9.37-8.3-17.19-16.35-19.91a.89.89,0,1,0-.58,1.69c7.35,2.49,13.44,10,15.18,18.58a.89.89,0,0,0,1.75,0A.77.77,0,0,0,131.11,126.77Z" transform="translate(-5.72)"/><path class="cls-3" d="M131.25,134.11a16.7,16.7,0,0,0,.28-4,.9.9,0,0,0-.93-.86.92.92,0,0,0-.86.94,14.75,14.75,0,0,1-.25,3.54.9.9,0,0,0,1.76.36Z" transform="translate(-5.72)"/><path class="cls-3" d="M131.71,143.23l.51,3.65a.71.71,0,0,1-1.15.65l-1.49-1.21a.72.72,0,0,0-.49-.15l-4.12.24a.71.71,0,0,1-.5-1.25l3.44-2.95A4.87,4.87,0,0,0,131.71,143.23Z" transform="translate(-5.72)"/><path class="cls-3" d="M105.73,102.43l-3.09-2a.71.71,0,0,0-1.07.77l.46,1.86a.75.75,0,0,1-.06.51l-2,3.63a.71.71,0,0,0,.92,1l4.13-1.87A4.89,4.89,0,0,1,105.73,102.43Z" transform="translate(-5.72)"/><rect class="cls-1" x="112.12" y="99.71" width="48.63" height="48.61" transform="translate(-42.76 186.49) rotate(-62.08)"/><path class="cls-2" d="M145.87,144.41a5.56,5.56,0,0,1-3.48,6.88s-.68.2-.92.24c-8.23,1.64-18.1-8-22.45-22.16s-1.59-27.67,6.14-30.94c.22-.1.89-.32.89-.32a5.56,5.56,0,0,1,6.65,7.28,12.44,12.44,0,0,1-.66,1.28c-2.49,4.81-4,10.55-1.42,19.14,2.71,8.8,7.25,12.52,12.09,15.11A5.6,5.6,0,0,1,145.87,144.41Z" transform="translate(-5.72)"/><path class="cls-3" d="M123.82,116.09c-.76,10.78,3.89,21.22,11.85,26.61A1,1,0,0,0,136.8,141c-7.25-4.91-11.66-14.88-11-24.79a1,1,0,0,0-1.9-.55A.93.93,0,0,0,123.82,116.09Z" transform="translate(-5.72)"/><path class="cls-3" d="M125.87,108.05a19.43,19.43,0,0,0-1.49,4.23,1,1,0,1,0,2,.45,17.28,17.28,0,0,1,1.34-3.78,1,1,0,0,0-.46-1.36,1,1,0,0,0-1.34.44Z" transform="translate(-5.72)"/><path class="cls-3" d="M128.12,98l.53-4.13a.8.8,0,0,1,1.45-.36l1.26,1.76a.82.82,0,0,0,.49.32l4.56,1a.8.8,0,0,1,.18,1.51L132,100.22A5.55,5.55,0,0,0,128.12,98Z" transform="translate(-5.72)"/><path class="cls-3" d="M144.17,150.23l2.76,3.12a.81.81,0,0,0,1.41-.51l0-2.17a.84.84,0,0,1,.22-.54l3.24-3.36a.81.81,0,0,0-.71-1.35l-5.06.8A5.5,5.5,0,0,1,144.17,150.23Z" transform="translate(-5.72)"/></g></g></svg>